HIERARCHY
ROOT Hips
{
    OFFSET   0.000000   0.000000   0.000000
    CHANNELS 6 Xposition Yposition Zposition Zrotation Xrotation Yrotation
    JOINT Chest
    {
        OFFSET   0.000000   8.007230   0.000000
        CHANNELS 3 Zrotation Xrotation Yrotation
        JOINT Chest2
        {
            OFFSET   0.000000  22.077100   0.000000
            CHANNELS 3 Zrotation Xrotation Yrotation
            JOINT Neck
            {
                OFFSET   0.000000  23.254800  -0.000021
                CHANNELS 3 Zrotation Xrotation Yrotation
                JOINT Head
                {
                    OFFSET   0.000000  14.370000   1.956610
                    CHANNELS 3 Zrotation Xrotation Yrotation
                    End Site
                    {
                        OFFSET   0.000000  19.566000   0.000000
                    }
                }
            }
            JOINT LeftCollar
            {
                OFFSET   3.911900  19.017000  -0.467063
                CHANNELS 3 Zrotation Xrotation Yrotation
                JOINT LeftShoulder
                {
                    OFFSET  10.383700   0.000000   0.000000
                    CHANNELS 3 Zrotation Xrotation Yrotation
                    JOINT LeftElbow
                    {
                        OFFSET  26.662100   0.001529   0.000325
                        CHANNELS 3 Zrotation Xrotation Yrotation
                        JOINT LeftWrist
                        {
                            OFFSET  28.869000  -0.000011  -0.000096
                            CHANNELS 3 Zrotation Xrotation Yrotation
                            JOINT LeftFinger0
                            {
                                OFFSET   2.044650  -2.323460   3.252850
                                CHANNELS 3 Zrotation Xrotation Yrotation
                                JOINT LeftFinger01
                                {
                                    OFFSET   3.088130   0.000000   0.000000
                                    CHANNELS 3 Zrotation Xrotation Yrotation
                                    JOINT LeftFinger02
                                    {
                                        OFFSET   2.639460   0.000000   0.000000
                                        CHANNELS 3 Zrotation Xrotation Yrotation
                                        End Site
                                        {
                                            OFFSET   2.582190   0.000000   0.000000
                                        }
                                    }
                                }
                            }
                            JOINT LeftFinger1
                            {
                                OFFSET   8.364480   0.000000   3.252850
                                CHANNELS 3 Zrotation Xrotation Yrotation
                                JOINT LeftFinger11
                                {
                                    OFFSET   4.646930   0.000000   0.000000
                                    CHANNELS 3 Zrotation Xrotation Yrotation
                                    JOINT LeftFinger12
                                    {
                                        OFFSET   2.323460   0.000000   0.000000
                                        CHANNELS 3 Zrotation Xrotation Yrotation
                                        End Site
                                        {
                                            OFFSET   2.273050   0.000000   0.000000
                                        }
                                    }
                                }
                            }
                            JOINT LeftFinger2
                            {
                                OFFSET   8.364480   0.000016   1.078090
                                CHANNELS 3 Zrotation Xrotation Yrotation
                                JOINT LeftFinger21
                                {
                                    OFFSET   5.111620   0.000000   0.000000
                                    CHANNELS 3 Zrotation Xrotation Yrotation
                                    JOINT LeftFinger22
                                    {
                                        OFFSET   2.788160   0.000017   0.000000
                                        CHANNELS 3 Zrotation Xrotation Yrotation
                                        End Site
                                        {
                                            OFFSET   2.727660   0.000000   0.000000
                                        }
                                    }
                                }
                            }
                            JOINT LeftFinger3
                            {
                                OFFSET   7.899780   0.000015  -1.078090
                                CHANNELS 3 Zrotation Xrotation Yrotation
                                JOINT LeftFinger31
                                {
                                    OFFSET   4.646920   0.000000   0.000000
                                    CHANNELS 3 Zrotation Xrotation Yrotation
                                    JOINT LeftFinger32
                                    {
                                        OFFSET   2.323470   0.000000   0.000000
                                        CHANNELS 3 Zrotation Xrotation Yrotation
                                        End Site
                                        {
                                            OFFSET   2.273050   0.000000   0.000000
                                        }
                                    }
                                }
                            }
                            JOINT LeftFinger4
                            {
                                OFFSET   7.435090   0.000000  -3.252850
                                CHANNELS 3 Zrotation Xrotation Yrotation
                                JOINT LeftFinger41
                                {
                                    OFFSET   3.717550   0.000000   0.000000
                                    CHANNELS 3 Zrotation Xrotation Yrotation
                                    JOINT LeftFinger42
                                    {
                                        OFFSET   1.858760   0.000000   0.000000
                                        CHANNELS 3 Zrotation Xrotation Yrotation
                                        End Site
                                        {
                                            OFFSET   1.818440   0.000000   0.000000
                                        }
                                    }
                                }
                            }
                        }
                    }
                }
            }
            JOINT RightCollar
            {
                OFFSET  -3.911900  19.017000  -0.467062
                CHANNELS 3 Zrotation Xrotation Yrotation
                JOINT RightShoulder
                {
                    OFFSET -10.383700   0.000015   0.000000
                    CHANNELS 3 Zrotation Xrotation Yrotation
                    JOINT RightElbow
                    {
                        OFFSET -26.662100   0.001341   0.000385
                        CHANNELS 3 Zrotation Xrotation Yrotation
                        JOINT RightWrist
                        {
                            OFFSET -28.869000   0.000025  -0.000080
                            CHANNELS 3 Zrotation Xrotation Yrotation
                            JOINT RightFinger0
                            {
                                OFFSET  -2.044650  -2.323490   3.252850
                                CHANNELS 3 Zrotation Xrotation Yrotation
                                JOINT RightFinger01
                                {
                                    OFFSET  -3.088130   0.000000   0.000000
                                    CHANNELS 3 Zrotation Xrotation Yrotation
                                    JOINT RightFinger02
                                    {
                                        OFFSET  -2.639460   0.000000   0.000000
                                        CHANNELS 3 Zrotation Xrotation Yrotation
                                        End Site
                                        {
                                            OFFSET  -2.582190   0.000000   0.000000
                                        }
                                    }
                                }
                            }
                            JOINT RightFinger1
                            {
                                OFFSET  -8.364480   0.000000   3.252850
                                CHANNELS 3 Zrotation Xrotation Yrotation
                                JOINT RightFinger11
                                {
                                    OFFSET  -4.646930   0.000000   0.000000
                                    CHANNELS 3 Zrotation Xrotation Yrotation
                                    JOINT RightFinger12
                                    {
                                        OFFSET  -2.323470   0.000000   0.000000
                                        CHANNELS 3 Zrotation Xrotation Yrotation
                                        End Site
                                        {
                                            OFFSET  -2.273050   0.000000   0.000000
                                        }
                                    }
                                }
                            }
                            JOINT RightFinger2
                            {
                                OFFSET  -8.364480   0.000000   1.078090
                                CHANNELS 3 Zrotation Xrotation Yrotation
                                JOINT RightFinger21
                                {
                                    OFFSET  -5.111610   0.000000   0.000000
                                    CHANNELS 3 Zrotation Xrotation Yrotation
                                    JOINT RightFinger22
                                    {
                                        OFFSET  -2.788160   0.000000   0.000000
                                        CHANNELS 3 Zrotation Xrotation Yrotation
                                        End Site
                                        {
                                            OFFSET  -2.727660   0.000000   0.000000
                                        }
                                    }
                                }
                            }
                            JOINT RightFinger3
                            {
                                OFFSET  -7.899780   0.000000  -1.078090
                                CHANNELS 3 Zrotation Xrotation Yrotation
                                JOINT RightFinger31
                                {
                                    OFFSET  -4.646920   0.000000   0.000000
                                    CHANNELS 3 Zrotation Xrotation Yrotation
                                    JOINT RightFinger32
                                    {
                                        OFFSET  -2.323470   0.000000   0.000000
                                        CHANNELS 3 Zrotation Xrotation Yrotation
                                        End Site
                                        {
                                            OFFSET  -2.273050   0.000000   0.000000
                                        }
                                    }
                                }
                            }
                            JOINT RightFinger4
                            {
                                OFFSET  -7.435090   0.000000  -3.252850
                                CHANNELS 3 Zrotation Xrotation Yrotation
                                JOINT RightFinger41
                                {
                                    OFFSET  -3.717550   0.000000   0.000000
                                    CHANNELS 3 Zrotation Xrotation Yrotation
                                    JOINT RightFinger42
                                    {
                                        OFFSET  -1.858770   0.000000   0.000000
                                        CHANNELS 3 Zrotation Xrotation Yrotation
                                        End Site
                                        {
                                            OFFSET  -1.818440   0.000000   0.000000
                                        }
                                    }
                                }
                            }
                        }
                    }
                }
            }
        }
    }
    JOINT LeftHip
    {
        OFFSET   9.783010   0.000000   0.000000
        CHANNELS 3 Zrotation Xrotation Yrotation
        JOINT LeftKnee
        {
            OFFSET   0.000070 -41.789100   0.000028
            CHANNELS 3 Zrotation Xrotation Yrotation
            JOINT LeftAnkle
            {
                OFFSET   0.000087 -41.133200  -0.000100
                CHANNELS 3 Zrotation Xrotation Yrotation
                JOINT LeftToe
                {
                    OFFSET   0.000000  -6.358960  14.674500
                    CHANNELS 3 Zrotation Xrotation Yrotation
                    End Site
                    {
                        OFFSET   0.000000   0.000000   3.913200
                    }
                }
            }
        }
    }
    JOINT RightHip
    {
        OFFSET  -9.783020   0.000000   0.000000
        CHANNELS 3 Zrotation Xrotation Yrotation
        JOINT RightKnee
        {
            OFFSET   0.000044 -41.789100  -0.000870
            CHANNELS 3 Zrotation Xrotation Yrotation
            JOINT RightAnkle
            {
                OFFSET  -0.000090 -41.133200  -0.000245
                CHANNELS 3 Zrotation Xrotation Yrotation
                JOINT RightToe
                {
                    OFFSET   0.000000  -6.358960  14.674500
                    CHANNELS 3 Zrotation Xrotation Yrotation
                    End Site
                    {
                        OFFSET   0.000000   0.000000   3.913200
                    }
                }
            }
        }
    }
}
MOTION
Frames: 4
Frame Time:   0.016667
  3.004580  89.497800   0.188185  -4.944640 -16.908600  -3.252610  -1.057880  16.551400   1.126760  -2.650980  33.073300   2.775230   3.877310  -1.943650   0.137733   6.390400  -3.886540  -0.210168   4.014120  -3.497070   0.728967 -43.864100  18.260600 -65.074000  16.042800 -16.529000 -105.491000  26.701100  -5.583670  -7.613060  40.137100  16.039200 -50.978900   2.504070  -0.003777   0.000291   6.252020  -0.001356  -0.002638 -11.548100   0.325425  -1.590830  -9.452530  -0.001117  -0.006701  -6.616760   0.000000  -0.004582 -14.580100  -0.844818   3.245330 -14.604400   0.004974  -0.006789  -9.726510   0.004991  -0.003342 -14.148900  -0.820458   3.251790 -14.172500   0.005556   0.000106  -9.438900   0.005168  -0.004049 -14.182100  -0.822345   3.251220 -21.308600  -0.000293  -0.000872 -14.191600   0.004315  -0.002342   8.030420  -2.218730   5.960330  68.111900  30.622200   7.945920   5.368290 -14.886500  21.741300 -21.292800  -9.094250   0.944555 -39.591600  31.367000  62.648900  29.291400   0.002136  -0.001125   9.648990  -0.002311   0.003379  27.672100   3.743190   7.096580  22.830800   0.001050   0.000394  15.981600   0.007145   0.002393  28.093100   2.849100   5.319640  33.614200   0.001483   0.007082  22.387100   0.006570   0.001911  27.036400   0.400093   0.783587  27.200600   0.000724   0.004846  18.115600   0.001729   0.001035  35.132300   0.215416   0.303467  52.699400   0.002007   0.004844  35.097900   0.003989  -0.005040   2.669910  20.408600   5.897930   1.549170   0.001953   6.107290  -1.351330  -4.128070   3.097080   0.000000   0.000000   0.000000   3.330060  17.590100  -7.497650  -0.002489   3.676900  -8.443240  -0.211206  -4.379860   1.665560  -0.000000   0.000000  -0.000000
  2.987300  89.497400   0.190065  -4.938210 -16.891700  -3.237260  -1.050530  16.537900   1.118870  -2.632830  33.046700   2.755270   3.855500  -1.943950   0.137035   6.354340  -3.887230  -0.413132   4.000310  -3.462590   0.694775 -43.847300  18.279700 -65.122700  16.234200 -16.759000 -105.239000  26.459200  -5.371990  -7.767830  40.082300  16.242800 -51.383000   2.753080  -0.003807   0.000290   6.376540  -0.001366  -0.002644 -11.555300   0.410459  -2.014030  -9.460410  -0.001143  -0.006758  -6.622260   0.000000  -0.004631 -14.607300  -0.749780   2.881370 -14.626200   0.004990  -0.006861  -9.741030   0.004983  -0.003409 -14.128300  -0.726358   2.887700 -14.146300   0.005577   0.000000  -9.421420   0.005169  -0.004093 -14.185400  -0.729359   2.886820 -21.305200  -0.000338  -0.001007 -14.189300   0.004294  -0.002367   8.020330  -2.197210   5.944560  68.109000  30.594100   7.942130   5.367300 -14.863600  21.727700 -21.264600  -9.196280   0.927354 -39.589900  31.371600  62.658300  29.292400   0.002152  -0.001138   9.648660  -0.002314   0.003374  27.678600   3.745110   7.098660  22.836300   0.001023   0.000373  15.982200   0.007126   0.002328  28.093300   2.850160   5.321580  33.614000   0.001460   0.007100  22.387000   0.006589   0.001972  27.036500   0.403477   0.790208  27.199800   0.000708   0.004870  18.115100   0.001710   0.001088  35.129300   0.215189   0.302992  52.694800   0.001982   0.004846  35.094800   0.003996  -0.005023   2.681680  20.374800   5.896740   1.549260   0.047054   6.094420  -1.364500  -4.144460   3.096930   0.000000   0.000000  -0.000000   3.341900  17.574600  -7.507320  -0.001137   3.679530  -8.437720  -0.224712  -4.384160   1.652450  -0.000000   0.000000   0.000000
  2.971530  89.497100   0.191235  -4.930740 -16.870500  -3.220460  -1.043750  16.522900   1.107900  -2.612790  33.017200   2.728540   3.836340  -1.946050   0.136293   6.322880  -3.892450  -0.613577   3.980740  -3.424250   0.651118 -43.838000  18.299100 -65.164600  16.380200 -16.888100 -105.095000  26.265800  -4.982120  -8.052670  40.046400  16.343700 -51.609000   2.907880  -0.003838   0.000282   6.453940  -0.001376  -0.002653 -11.561700   0.480735  -2.349170  -9.468300  -0.001168  -0.006811  -6.627760   0.000000  -0.004680 -14.642300  -0.681411   2.605210 -14.658400   0.005010  -0.006932  -9.762490   0.004975  -0.003476 -14.104400  -0.656698   2.611790 -14.120000   0.005601  -0.000110  -9.403940   0.005170  -0.004138 -14.185500  -0.660442   2.610770 -21.301800  -0.000382  -0.001147 -14.187000   0.004272  -0.002389   8.012730  -2.177300   5.928980  68.105800  30.569100   7.936900   5.367350 -14.844500  21.719400 -21.235500  -9.278910   0.917392 -39.599100  31.387100  62.677200  29.292600   0.002169  -0.001147   9.646340  -0.002315   0.003368  27.681000   3.748470   7.103800  22.838500   0.000996   0.000352  15.982300   0.007107   0.002264  28.093000   2.853080   5.327150  33.612500   0.001436   0.007118  22.386000   0.006608   0.002033  27.036500   0.409429   0.801911  27.194500   0.000691   0.004895  18.111500   0.001691   0.001142  35.121900   0.214943   0.302511  52.683800   0.001956   0.004848  35.087400   0.004003  -0.005006   2.697450  20.328500   5.895710   1.549380   0.092157   6.079460  -1.378900  -4.160870   3.095500  -0.000000   0.000000   0.000000   3.349660  17.553100  -7.513000   0.000881   3.685660  -8.432230  -0.234772  -4.388760   1.637220  -0.000000   0.000000   0.000000
  2.957000  89.496700   0.192547  -4.921980 -16.842200  -3.202850  -1.039600  16.504300   1.093950  -2.596190  32.980600   2.696000   3.822250  -1.957550   0.135556   6.302640  -3.916180  -0.792718   3.950210  -3.379950   0.604127 -43.848400  18.303800 -65.196400  16.504700 -16.896100 -105.110000  26.179600  -4.532500  -8.364070  40.018100  16.144600 -51.384800   2.889190  -0.003867   0.000257   6.444590  -0.001382  -0.002665 -11.609800   0.502197  -2.433220  -9.507060  -0.001192  -0.006863  -6.654890   0.000000  -0.004728 -14.691800  -0.674664   2.558410 -14.707800   0.005036  -0.007004  -9.795360   0.004959  -0.003537 -14.112000  -0.647487   2.565440 -14.126600   0.005629  -0.000222  -9.408340   0.005173  -0.004186 -14.203400  -0.651984   2.564300 -21.327500  -0.000422  -0.001291 -14.204100   0.004252  -0.002407   8.011100  -2.159380   5.913760  68.105200  30.525600   7.928000   5.372860 -14.806800  21.715000 -21.215300  -9.311810   0.923761 -39.640300  31.433600  62.696800  29.282300   0.002190  -0.001157   9.640190  -0.002311   0.003359  27.671400   3.751450   7.111900  22.831200   0.000966   0.000331  15.982100   0.007089   0.002200  28.092200   2.858600   5.338080  33.593800   0.001414   0.007140  22.373500   0.006630   0.002093  27.036500   0.415285   0.813577  27.170800   0.000675   0.004917  18.095700   0.001672   0.001197  35.107700   0.214670   0.302024  52.662600   0.001931   0.004847  35.073200   0.004013  -0.004987   2.709000  20.319200   5.904510   1.546760   0.046954   6.063030  -1.393500  -4.125800   3.089030   0.000000   0.000000   0.000000   3.351120  17.522000  -7.507220   0.003882   3.694460  -8.436770  -0.240357  -4.393430   1.621210   0.000000   0.000000   0.000000
